<?xml version="1.0" standalone="no"?>
<!DOCTYPE svg PUBLIC "-//W3C//DTD SVG 20010904//EN"
 "http://www.w3.org/TR/2001/REC-SVG-20010904/DTD/svg10.dtd">
<svg version="1.0" xmlns="http://www.w3.org/2000/svg"
 width="512.000000pt" height="512.000000pt" viewBox="0 0 512.000000 512.000000"
 preserveAspectRatio="xMidYMid meet">

<g transform="translate(0.000000,512.000000) scale(0.100000,-0.100000)"
fill="#000000" stroke="none">
<path d="M2315 5109 c-800 -83 -1501 -518 -1927 -1196 -487 -774 -516 -1777
-75 -2578 199 -364 487 -676 837 -910 242 -162 602 -313 880 -369 214 -43 295
-51 530 -51 236 0 333 10 532 51 880 184 1615 842 1898 1702 92 278 125 491
125 802 0 301 -32 513 -116 775 -124 390 -330 728 -622 1024 -399 404 -893
653 -1462 737 -123 18 -478 26 -600 13z m525 -373 c661 -89 1232 -457 1585
-1021 162 -259 276 -587 315 -905 13 -109 13 -391 0 -500 -61 -498 -278 -947
-630 -1300 -350 -351 -801 -569 -1300 -630 -122 -15 -398 -12 -526 4 -844 112
-1542 686 -1804 1486 -81 244 -110 429 -110 690 0 261 29 446 110 690 260 794
954 1369 1790 1485 130 17 440 18 570 1z"/>
<path d="M2460 3931 c-19 -10 -48 -35 -65 -55 l-30 -38 -3 -554 -2 -554 -528
0 c-494 0 -529 -1 -562 -19 -104 -55 -133 -192 -58 -277 59 -67 33 -64 617
-64 l531 0 2 -544 3 -544 31 -39 c70 -88 189 -99 267 -25 16 15 34 36 40 47 9
14 13 176 17 560 l5 540 555 5 c396 4 561 8 575 17 11 6 32 24 47 40 74 78 63
197 -25 267 l-39 31 -559 3 -559 2 0 546 c0 592 2 570 -57 626 -54 51 -140 63
-203 29z"/>
</g>
</svg>
